<svg width="164" height="36" viewBox="0 0 164 36" fill="none" xmlns="http://www.w3.org/2000/svg">
<path d="M14.7771 6.79865C13.6037 6.79865 12.6724 7.81651 12.637 9.04814C12.6354 9.06113 12.6346 9.07422 12.6347 9.08732V9.09975V9.10023C12.6346 9.10683 12.6337 9.11321 12.6337 9.11982C12.6335 9.13003 12.6338 9.14023 12.6347 9.15041L12.6318 10.6338C12.6316 10.656 12.6339 10.6781 12.6385 10.6998C12.6385 10.7002 12.6385 10.7007 12.6385 10.7012C12.6599 11.3828 12.9051 12.0084 13.3013 12.4895C12.886 12.987 12.6351 13.6412 12.6275 14.3552C12.6255 14.3698 12.6245 14.3845 12.6246 14.3992L12.6146 19.6949C12.6146 19.6956 12.6146 19.6962 12.6146 19.6968C12.6146 19.6975 12.6146 19.6981 12.6146 19.6987V19.7389C12.6145 19.7565 12.6159 19.7741 12.6189 19.7915C12.6189 19.7921 12.6189 19.7927 12.6189 19.7934C12.6331 20.5803 12.9401 21.2949 13.4399 21.8029C12.923 22.3253 12.608 23.0697 12.6084 23.879V23.8794C12.6074 23.8893 12.607 23.8992 12.607 23.9091L12.5998 27.6755C12.5998 27.6766 12.5998 27.6777 12.5998 27.6788C12.5998 27.6793 12.5998 27.6798 12.5998 27.6803V27.7185C12.5996 27.7369 12.601 27.7553 12.6041 27.7735C12.6503 28.9947 13.5771 30 14.7432 30C15.4741 30 16.1108 29.6042 16.4966 29.0088C16.6171 29.0661 16.7412 29.1171 16.8727 29.1536C18.1924 29.5204 19.5312 28.6336 19.8562 27.2272C19.8693 27.1702 19.8781 27.1132 19.8877 27.0561C21.0687 27.5017 22.4256 26.9914 23.0767 25.7912C23.5947 24.8362 23.5542 23.6969 23.058 22.8082C23.3985 22.503 23.6896 22.1222 23.9073 21.6751C24.7252 19.9953 24.2539 17.9429 22.8468 16.8721C23.0196 16.493 23.1206 16.0698 23.1206 15.6205C23.1206 14.237 22.1936 13.0648 20.9572 12.8333C21.4739 11.5017 21.1056 9.91912 19.977 9.03018C19.3226 8.5148 18.5299 8.34168 17.7844 8.47533C17.476 8.53061 17.177 8.64115 16.8979 8.79888C16.7532 7.68242 15.87 6.79887 14.777 6.79887L14.7771 6.79865ZM12.1428 6.80295C11.4081 6.80924 10.6757 6.88525 9.95544 7.02995L9.95688 7.0309L9.95735 7.03138C9.96671 7.05069 9.97579 7.07012 9.9846 7.08969L9.99081 7.10498C10.2218 7.65929 10.2235 8.28261 9.99533 8.83812C9.76721 9.39363 9.32797 9.83591 8.77406 10.0679C8.22024 10.2997 7.59709 10.3023 7.04134 10.0752C6.4856 9.84804 6.04265 9.40972 5.8097 8.85639C5.79932 8.82981 5.78944 8.80305 5.78007 8.7761C4.53239 9.61877 3.46051 10.6961 2.62412 11.948C3.11107 12.187 3.49614 12.5928 3.70942 13.0916L3.71611 13.1073C3.94698 13.6616 3.94853 14.2848 3.72041 14.8402C3.4923 15.3956 3.05315 15.8378 2.49936 16.0697C1.98758 16.2833 1.41528 16.3018 0.890751 16.1218C0.585724 17.6327 0.584586 19.1893 0.887406 20.7006C0.911259 20.6889 0.935317 20.6776 0.959568 20.6667C1.51251 20.4329 2.13563 20.428 2.6922 20.653C3.24877 20.8781 3.69333 21.3147 3.92834 21.8672L3.93503 21.8829C4.16574 22.4371 4.16721 23.0602 3.93911 23.6155C3.711 24.1708 3.27195 24.6129 2.71828 24.8449C2.68888 24.8562 2.65924 24.8668 2.62939 24.8769C3.48442 26.1475 4.58235 27.2363 5.85997 28.0808C6.09171 27.5471 6.51982 27.1229 7.05568 26.8961C7.60868 26.6621 8.23192 26.6571 8.78861 26.8822C9.34529 27.1072 9.78993 27.544 10.0249 28.0966L10.0316 28.1123C10.2541 28.6491 10.262 29.2507 10.0536 29.7931C10.7425 29.9234 11.4419 29.9911 12.143 29.9952V23.1489C11.2292 23.1262 10.3414 22.8404 9.58588 22.3258C8.8304 21.8112 8.23933 21.0897 7.88352 20.2477C7.39493 19.0873 7.38673 17.7805 7.86071 16.6141C8.33468 15.4477 9.25211 14.517 10.4116 14.0263C10.9605 13.7958 11.5479 13.6705 12.143 13.6569V6.80279L12.1428 6.80295ZM14.7771 7.41035C15.6108 7.41035 16.3092 8.15738 16.3092 9.1198C16.3088 9.15491 16.3145 9.18983 16.326 9.22303C16.1602 9.38068 16.0073 9.55834 15.8748 9.76067C15.8522 9.79427 15.8365 9.83202 15.8287 9.87173C15.8208 9.91144 15.8208 9.95232 15.8289 9.992C15.8369 10.0317 15.8527 10.0694 15.8754 10.1029C15.8982 10.1364 15.9273 10.1651 15.9612 10.1872C15.995 10.2094 16.033 10.2246 16.0728 10.232C16.1126 10.2394 16.1535 10.2389 16.193 10.2303C16.2326 10.2218 16.2701 10.2055 16.3033 10.1824C16.3366 10.1593 16.3649 10.1298 16.3866 10.0957C17.1433 8.94015 18.5563 8.68932 19.5986 9.51024C20.641 10.3312 20.8886 11.9576 20.132 13.1132C19.7018 13.7702 19.0556 14.1273 18.39 14.1689C18.3233 14.1731 18.2563 14.1702 18.1893 14.168C18.1741 13.4571 17.8975 12.7556 17.3654 12.2439C17.6657 11.7867 17.8453 11.2314 17.851 10.6339C17.8517 10.5935 17.8444 10.5534 17.8295 10.5159C17.8147 10.4784 17.7926 10.4441 17.7644 10.4152C17.7363 10.3863 17.7027 10.3632 17.6656 10.3473C17.6285 10.3314 17.5886 10.323 17.5482 10.3226C17.5079 10.3222 17.4678 10.3298 17.4304 10.3449C17.393 10.36 17.3589 10.3824 17.3302 10.4108C17.3015 10.4392 17.2787 10.4729 17.2631 10.5101C17.2474 10.5474 17.2394 10.5873 17.2393 10.6277C17.2275 11.8717 16.3125 12.8365 15.222 12.8241C14.1315 12.8117 13.2337 11.8254 13.2454 10.5813C13.2456 10.5711 13.2453 10.5609 13.2445 10.5507C13.2442 10.5487 13.2439 10.5466 13.2435 10.5445L13.2459 9.24941L13.2464 9.09935C13.2564 8.14701 13.9494 7.41035 14.7771 7.41035ZM16.9726 12.7173C17.7095 13.4606 17.7825 14.7457 17.1179 15.5833C17.065 15.6499 17.0096 15.7115 16.9516 15.7683C16.9252 15.794 16.8966 15.8152 16.8694 15.839C16.8481 15.8087 16.8287 15.777 16.8063 15.7477C16.4065 15.2253 15.8221 14.8667 15.1427 14.8005C15.1327 14.7994 15.1227 14.7988 15.1126 14.7986C15.0332 14.7973 14.9563 14.827 14.8984 14.8814C14.8405 14.9358 14.806 15.0105 14.8022 15.0899C14.7984 15.1692 14.8256 15.2469 14.8781 15.3066C14.9306 15.3662 15.0042 15.4031 15.0834 15.4094C16.082 15.5066 16.8457 16.4864 16.7532 17.6287C16.7388 17.8074 16.7042 17.9779 16.6524 18.1382C16.6391 18.1766 16.6336 18.2174 16.6363 18.258C16.6389 18.2986 16.6496 18.3383 16.6678 18.3747C16.686 18.4111 16.7113 18.4435 16.7421 18.4701C16.773 18.4966 16.8088 18.5167 16.8476 18.5292C16.8863 18.5417 16.9271 18.5463 16.9677 18.5428C17.0082 18.5394 17.0477 18.5278 17.0837 18.5089C17.1197 18.49 17.1516 18.464 17.1775 18.4326C17.2034 18.4012 17.2228 18.365 17.2345 18.326C17.3008 18.1207 17.3448 17.9036 17.363 17.678C17.3999 17.2227 17.3272 16.7816 17.1685 16.3867C17.3234 16.2659 17.4679 16.1256 17.5967 15.9633C17.8762 15.6111 18.0557 15.2032 18.1386 14.78C18.8517 14.8112 19.5631 14.5586 20.1234 14.0565C20.1718 14.0131 20.2188 13.9678 20.2648 13.9207C20.403 13.7796 20.5303 13.6219 20.6438 13.4486C20.6523 13.4356 20.6589 13.4219 20.6672 13.4089C21.687 13.4965 22.509 14.4358 22.509 15.6201C22.509 15.9399 22.4485 16.2426 22.3399 16.5157C22.3356 16.5263 22.3299 16.5358 22.3255 16.5463C21.9585 16.3598 21.574 16.2453 21.1876 16.207C20.8133 16.17 20.4391 16.2037 20.0794 16.2969C19.963 15.9715 19.7437 15.6855 19.4337 15.4992C19.3813 15.4668 19.3204 15.451 19.2588 15.4538C19.1929 15.4569 19.1298 15.4812 19.0788 15.5231C19.0279 15.565 18.9918 15.6223 18.9761 15.6864C18.9603 15.7504 18.9657 15.8179 18.9914 15.8786C19.0171 15.9394 19.0618 15.9902 19.1188 16.0235C19.5222 16.2658 19.6865 16.8561 19.4543 17.321C19.418 17.3937 19.375 17.4581 19.3272 17.5141C19.2997 17.5444 19.2786 17.5799 19.2651 17.6186C19.2516 17.6572 19.246 17.6981 19.2486 17.739C19.2512 17.7798 19.262 17.8197 19.2803 17.8563C19.2986 17.8929 19.3241 17.9254 19.3552 17.952C19.3863 17.9786 19.4224 17.9987 19.4615 18.011C19.5005 18.0234 19.5416 18.0278 19.5823 18.024C19.6231 18.0202 19.6626 18.0082 19.6987 17.9889C19.7347 17.9695 19.7665 17.9431 19.7922 17.9112C19.8729 17.8168 19.9433 17.7109 20.0015 17.5943C20.1113 17.3745 20.1663 17.1387 20.1735 16.9047C20.8298 16.7172 21.543 16.7849 22.1931 17.1657C23.5664 17.9699 24.102 19.8775 23.3573 21.407C22.9882 22.1651 22.3834 22.6785 21.7047 22.91C21.3993 23.0142 21.0967 22.9864 20.7714 22.8164C20.446 22.6464 20.1057 22.3236 19.7983 21.8433C19.7968 21.8409 19.7952 21.8385 19.7936 21.8362C20.2223 21.4969 20.5086 20.9596 20.5338 20.3537C20.5361 20.3129 20.5301 20.272 20.5163 20.2335C20.5025 20.195 20.4811 20.1597 20.4534 20.1296C20.4257 20.0996 20.3922 20.0753 20.355 20.0584C20.3177 20.0415 20.2775 20.0322 20.2366 20.0311C20.1556 20.029 20.077 20.059 20.0181 20.1148C19.9592 20.1705 19.9249 20.2473 19.9226 20.3284C19.8912 21.0823 19.3258 21.6309 18.682 21.5986C18.5814 21.5936 18.4849 21.5746 18.3929 21.5437C18.3548 21.5309 18.3145 21.5257 18.2744 21.5285C18.2343 21.5312 18.1952 21.5418 18.1592 21.5597C18.1232 21.5776 18.0911 21.6024 18.0647 21.6327C18.0383 21.663 18.0181 21.6982 18.0053 21.7363C17.9925 21.7744 17.9873 21.8146 17.9901 21.8547C17.9928 21.8948 18.0034 21.934 18.0213 21.97C18.0392 22.0059 18.064 22.0381 18.0943 22.0645C18.1246 22.0909 18.1598 22.1111 18.1979 22.1239C18.3418 22.1722 18.4941 22.2015 18.6514 22.2094C18.8633 22.22 19.0666 22.1886 19.2574 22.1258C19.2646 22.1423 19.2732 22.1581 19.2832 22.1731C19.6332 22.7199 20.039 23.1241 20.488 23.3587C20.937 23.5934 21.437 23.6479 21.9021 23.4892C22.1302 23.4114 22.3495 23.3054 22.5582 23.1776C22.9153 23.8731 22.939 24.7616 22.5391 25.4988C21.9842 26.5218 20.8669 26.8804 19.9239 26.4058C19.8575 25.3028 19.1586 24.3152 18.1069 24.0139C18.19 23.5064 18.0869 22.9653 17.7801 22.5172C17.7517 22.4744 17.713 22.4395 17.6676 22.4156C17.6221 22.3917 17.5714 22.3796 17.5201 22.3805C17.4766 22.3812 17.4338 22.3911 17.3945 22.4097C17.3552 22.4282 17.3203 22.455 17.2921 22.4881C17.2639 22.5212 17.2432 22.5599 17.2311 22.6017C17.2191 22.6434 17.2161 22.6873 17.2224 22.7303C17.2238 22.7404 17.2257 22.7505 17.2281 22.7604C17.2372 22.7971 17.2531 22.8318 17.2749 22.8627C17.6801 23.4543 17.5653 24.3131 17.0355 24.7494C16.9526 24.8177 16.8658 24.8714 16.7765 24.9119C16.7383 24.9274 16.7036 24.9504 16.6746 24.9796C16.6455 25.0089 16.6226 25.0436 16.6073 25.0819C16.592 25.1202 16.5846 25.1611 16.5856 25.2023C16.5865 25.2435 16.5958 25.2841 16.6128 25.3216C16.6298 25.3592 16.6542 25.3929 16.6846 25.4208C16.7149 25.4486 16.7506 25.4701 16.7895 25.4838C16.8283 25.4975 16.8695 25.5033 16.9107 25.5007C16.9518 25.4981 16.992 25.4872 17.0288 25.4687C17.1675 25.4058 17.3009 25.3234 17.4245 25.2216C17.6368 25.0468 17.8014 24.8319 17.9196 24.5955C17.9215 24.5962 17.9234 24.5968 17.9253 24.5974C18.8999 24.8683 19.5161 25.9795 19.2596 27.0893C19.0673 27.9216 18.4612 28.4872 17.759 28.6038C17.7005 28.6135 17.6414 28.6205 17.5817 28.6239C17.4624 28.6306 17.3407 28.6242 17.219 28.6043C17.1581 28.5943 17.0973 28.5811 17.0364 28.5641C16.9398 28.5373 16.8485 28.4998 16.7597 28.4576C16.8408 28.2128 16.8868 27.951 16.8868 27.6786C16.8878 27.5987 16.8575 27.5216 16.8023 27.4637C16.7472 27.4059 16.6716 27.3719 16.5917 27.3691C16.5119 27.3663 16.4341 27.3949 16.375 27.4487C16.3159 27.5025 16.2803 27.5773 16.2756 27.6571C16.2752 27.6642 16.275 27.6714 16.2751 27.6786C16.2751 28.5809 15.661 29.2938 14.8973 29.3794C14.8464 29.3851 14.7951 29.388 14.743 29.388C13.9097 29.388 13.212 28.6418 13.2113 27.68C13.2113 27.6795 13.2113 27.6791 13.2113 27.6786L13.2185 24.0213C13.2194 24.0087 13.2196 23.9961 13.2189 23.9835C13.1662 22.7602 14.0048 21.7508 15.0703 21.6657C15.1871 21.9819 15.3811 22.2704 15.6524 22.4939C15.776 22.5957 15.9089 22.6785 16.0476 22.7414C16.0843 22.7588 16.1241 22.7686 16.1646 22.7704C16.2052 22.7722 16.2456 22.7659 16.2837 22.7519C16.3218 22.7379 16.3567 22.7165 16.3864 22.6888C16.4161 22.6612 16.4401 22.6279 16.4568 22.591C16.4735 22.554 16.4827 22.5141 16.4839 22.4735C16.4851 22.433 16.4781 22.3926 16.4635 22.3548C16.449 22.3169 16.427 22.2823 16.3989 22.2531C16.3708 22.2238 16.3372 22.2004 16.2999 22.1842C16.2107 22.1437 16.1238 22.09 16.0409 22.0217C15.5111 21.5854 15.3963 20.7266 15.8015 20.135C15.834 20.0889 15.8532 20.0346 15.8568 19.9783C15.8604 19.9219 15.8484 19.8657 15.822 19.8158C15.7957 19.7658 15.756 19.7242 15.7074 19.6954C15.6588 19.6667 15.6032 19.6519 15.5468 19.6528C15.4972 19.6536 15.4485 19.6664 15.4049 19.6903C15.3614 19.7141 15.3243 19.7481 15.2968 19.7895C15.0343 20.1728 14.9208 20.6243 14.9451 21.0645C14.5738 21.1059 14.2286 21.2293 13.9233 21.4186C13.4937 21.0076 13.217 20.3944 13.2261 19.7049L13.2309 17.088L13.2361 14.4361C13.2366 14.428 13.2368 14.4198 13.2366 14.4117C13.2311 13.8356 13.4237 13.3124 13.7389 12.9173C14.1551 13.2373 14.6621 13.4295 15.2146 13.4358C15.8926 13.4436 16.5066 13.168 16.9723 12.7175L16.9726 12.7173Z" fill="url(#paint0_linear_322_3)"/>
<path d="M42.0438 14.451C41.9854 13.8093 41.7258 13.3105 41.2649 12.9546C40.8099 12.5929 40.1594 12.4121 39.3135 12.4121C38.7534 12.4121 38.2867 12.485 37.9133 12.6308C37.5399 12.7767 37.2599 12.978 37.0732 13.2347C36.8865 13.4855 36.7903 13.7743 36.7844 14.101C36.7728 14.3694 36.8253 14.6056 36.9419 14.8098C37.0645 15.014 37.2395 15.1949 37.467 15.3524C37.7004 15.5041 37.9804 15.6383 38.3071 15.7549C38.6338 15.8716 39.0013 15.9737 39.4097 16.0612L40.9499 16.4113C41.8367 16.6038 42.6184 16.8605 43.2952 17.1814C43.9778 17.5022 44.5495 17.8844 45.0104 18.3277C45.4771 18.7711 45.8301 19.2816 46.0692 19.8592C46.3084 20.4367 46.431 21.0843 46.4368 21.8019C46.431 22.9337 46.1451 23.9051 45.5792 24.716C45.0133 25.5269 44.1994 26.1482 43.1377 26.58C42.0817 27.0117 40.807 27.2275 39.3135 27.2275C37.8141 27.2275 36.5073 27.0029 35.393 26.5537C34.2787 26.1045 33.4124 25.4219 32.794 24.506C32.1756 23.59 31.8576 22.432 31.8401 21.0318H35.9881C36.0231 21.6094 36.1777 22.0907 36.4519 22.4757C36.7261 22.8608 37.1024 23.1525 37.5808 23.3508C38.065 23.5492 38.6251 23.6484 39.261 23.6484C39.8444 23.6484 40.3402 23.5696 40.7486 23.4121C41.1628 23.2546 41.4808 23.0358 41.7025 22.7558C41.9242 22.4757 42.0379 22.1549 42.0438 21.7931C42.0379 21.4548 41.9329 21.166 41.7287 20.9268C41.5246 20.6818 41.2095 20.4717 40.7836 20.2967C40.3636 20.1159 39.8269 19.9496 39.1734 19.7979L37.3007 19.3604C35.7489 19.0045 34.5267 18.4298 33.6341 17.6364C32.7415 16.8372 32.2981 15.7579 32.3039 14.3985C32.2981 13.2901 32.5956 12.3187 33.1965 11.4845C33.7974 10.6502 34.6288 9.9997 35.6905 9.53298C36.7523 9.06625 37.9629 8.83289 39.3222 8.83289C40.7107 8.83289 41.9154 9.06917 42.9364 9.54173C43.9632 10.0084 44.7595 10.6648 45.3254 11.5107C45.8913 12.3566 46.1801 13.3367 46.1918 14.451H42.0438ZM57.2968 21.1981V13.5584H61.5673V27H57.4893V24.4972H57.3493C57.0518 25.3198 56.5442 25.9732 55.8266 26.4574C55.1149 26.9358 54.2544 27.175 53.2451 27.175C52.3291 27.175 51.524 26.965 50.8298 26.5449C50.1356 26.1249 49.5959 25.5386 49.2109 24.786C48.8258 24.0276 48.6304 23.1408 48.6245 22.1257V13.5584H52.9038V21.2856C52.9096 22.0148 53.1021 22.5895 53.4814 23.0095C53.8606 23.4296 54.3769 23.6396 55.0303 23.6396C55.4562 23.6396 55.8383 23.5463 56.1767 23.3596C56.5209 23.1671 56.7922 22.8899 56.9905 22.5282C57.1947 22.1607 57.2968 21.7173 57.2968 21.1981ZM64.291 27V13.5584H68.3603V16.0262H68.509C68.7891 15.2095 69.2616 14.5648 69.9267 14.0923C70.5918 13.6197 71.3852 13.3834 72.307 13.3834C73.2404 13.3834 74.0397 13.6226 74.7048 14.101C75.3698 14.5794 75.7928 15.2211 75.9737 16.0262H76.1137C76.3645 15.227 76.8546 14.5881 77.5838 14.1098C78.3131 13.6255 79.1736 13.3834 80.1654 13.3834C81.4372 13.3834 82.4698 13.7918 83.2632 14.6086C84.0567 15.4195 84.4534 16.5338 84.4534 17.9515V27H80.1741V18.9316C80.1741 18.2607 80.002 17.7502 79.6578 17.4001C79.3136 17.0443 78.8673 16.8663 78.3189 16.8663C77.7297 16.8663 77.2659 17.0588 76.9275 17.4439C76.595 17.8231 76.4287 18.3336 76.4287 18.9753V27H72.3157V18.8878C72.3157 18.2636 72.1465 17.7706 71.8082 17.4089C71.4698 17.0472 71.0235 16.8663 70.4693 16.8663C70.0959 16.8663 69.7663 16.9568 69.4804 17.1376C69.1945 17.3126 68.9699 17.5635 68.8066 17.8902C68.6491 18.2169 68.5703 18.6019 68.5703 19.0453V27H64.291ZM90.8941 27.2275C90.0365 27.2275 89.2752 27.0846 88.6101 26.7987C87.9509 26.507 87.4287 26.0695 87.0437 25.4861C86.6645 24.8968 86.4749 24.1588 86.4749 23.2721C86.4749 22.5253 86.6061 21.8952 86.8687 21.3818C87.1312 20.8685 87.4929 20.4513 87.9538 20.1305C88.4147 19.8096 88.9456 19.5675 89.5465 19.4041C90.1474 19.2349 90.7891 19.1212 91.4717 19.0628C92.236 18.9928 92.8514 18.9199 93.3182 18.8441C93.7849 18.7624 94.1233 18.6486 94.3333 18.5028C94.5491 18.3511 94.6571 18.1381 94.6571 17.8639V17.8202C94.6571 17.371 94.5025 17.0238 94.1933 16.7788C93.8841 16.5338 93.4669 16.4113 92.9419 16.4113C92.376 16.4113 91.9209 16.5338 91.5767 16.7788C91.2325 17.0238 91.0137 17.3622 90.9204 17.7939L86.9737 17.6539C87.0904 16.8372 87.3908 16.1079 87.875 15.4662C88.3651 14.8186 89.036 14.311 89.8878 13.9435C90.7454 13.5701 91.7751 13.3834 92.9769 13.3834C93.8345 13.3834 94.625 13.4855 95.3484 13.6897C96.0718 13.8881 96.7019 14.1798 97.2386 14.5648C97.7753 14.944 98.1896 15.4107 98.4813 15.965C98.7788 16.5192 98.9276 17.1522 98.9276 17.8639V27H94.9021V25.1273H94.7971C94.5579 25.5823 94.2516 25.9674 93.8782 26.2824C93.5107 26.5975 93.0761 26.8337 92.5743 26.9912C92.0784 27.1488 91.5184 27.2275 90.8941 27.2275ZM92.2155 24.4272C92.6764 24.4272 93.0906 24.3339 93.4582 24.1472C93.8316 23.9605 94.1291 23.7038 94.3508 23.3771C94.5725 23.0445 94.6833 22.6595 94.6833 22.2219V20.9443C94.5608 21.0085 94.412 21.0668 94.237 21.1193C94.0678 21.1718 93.8811 21.2214 93.677 21.2681C93.4728 21.3148 93.2627 21.3556 93.0469 21.3906C92.831 21.4256 92.6239 21.4577 92.4256 21.4869C92.023 21.551 91.6788 21.6502 91.3929 21.7844C91.1129 21.9186 90.897 22.0936 90.7454 22.3095C90.5995 22.5195 90.5266 22.7703 90.5266 23.062C90.5266 23.5054 90.6841 23.8438 90.9991 24.0772C91.32 24.3105 91.7255 24.4272 92.2155 24.4272ZM101.544 27V13.5584H105.701V16.0087H105.841C106.086 15.122 106.486 14.4627 107.04 14.031C107.594 13.5934 108.239 13.3747 108.974 13.3747C109.172 13.3747 109.376 13.3893 109.586 13.4184C109.796 13.4418 109.992 13.4797 110.173 13.5322V17.2514C109.968 17.1814 109.7 17.1259 109.368 17.0851C109.041 17.0443 108.749 17.0238 108.492 17.0238C107.985 17.0238 107.527 17.1376 107.119 17.3651C106.716 17.5868 106.398 17.8989 106.165 18.3015C105.937 18.6982 105.823 19.1649 105.823 19.7017V27H101.544ZM111.916 27V13.5584H116.195V27H111.916ZM114.06 11.992C113.459 11.992 112.943 11.7937 112.511 11.3969C112.08 10.9944 111.864 10.5102 111.864 9.94427C111.864 9.38421 112.08 8.90582 112.511 8.50911C112.943 8.10656 113.459 7.90529 114.06 7.90529C114.667 7.90529 115.183 8.10656 115.609 8.50911C116.041 8.90582 116.257 9.38421 116.257 9.94427C116.257 10.5102 116.041 10.9944 115.609 11.3969C115.183 11.7937 114.667 11.992 114.06 11.992ZM126.559 13.5584V16.7088H117.913V13.5584H126.559ZM119.716 27V12.8759C119.716 11.8374 119.911 10.9769 120.302 10.2943C120.693 9.6059 121.235 9.09251 121.93 8.75413C122.624 8.40993 123.426 8.23782 124.336 8.23782C124.931 8.23782 125.491 8.2845 126.016 8.37784C126.547 8.46535 126.941 8.54411 127.198 8.61412L126.515 11.747C126.358 11.6945 126.165 11.6507 125.938 11.6157C125.716 11.5807 125.506 11.5632 125.307 11.5632C124.806 11.5632 124.462 11.6741 124.275 11.8957C124.088 12.1174 123.995 12.4208 123.995 12.8059V27H119.716ZM131.234 32.0406C130.721 32.0406 130.236 31.9997 129.781 31.9181C129.326 31.8422 128.936 31.7401 128.609 31.6118L129.554 28.5052C129.974 28.6452 130.353 28.7269 130.692 28.7502C131.036 28.7735 131.33 28.7181 131.575 28.5839C131.826 28.4556 132.019 28.2251 132.153 27.8926L132.319 27.4901L127.541 13.5584H132.022L134.498 23.1496H134.638L137.15 13.5584H141.657L136.59 28.2864C136.345 29.0215 135.998 29.6691 135.548 30.2291C135.105 30.795 134.53 31.2384 133.824 31.5593C133.124 31.8801 132.261 32.0406 131.234 32.0406Z" fill="black"/>
<defs>
<linearGradient id="paint0_linear_322_3" x1="0.661133" y1="6.79865" x2="24.3085" y2="6.79865" gradientUnits="userSpaceOnUse">
<stop stop-color="#EF4136"/>
<stop offset="1" stop-color="#FBB040"/>
</linearGradient>
</defs>
</svg>
